# Blender 3.3.1
# www.blender.org
o Plane
v 1.000000 5.000000 0.000000
v 5.000000 1.000000 0.000000
v 5.000000 3.000000 0.000000
v 5.000000 -1.000000 0.000000
v 3.000000 -1.000000 0.000000
v 5.000000 -3.000000 0.000000
v 3.000000 -5.000000 0.000000
v 1.000000 -5.000000 0.000000
v -1.000000 -3.000000 0.000000
v -1.000000 -1.000000 0.000000
v -3.000000 -3.000000 0.000000
v -3.000000 -1.000000 0.000000
v -1.000000 1.000000 0.000000
v 3.000000 1.000000 0.000000
v 1.000000 3.000000 0.000000
v 3.000000 -3.000000 0.000000
v 1.000000 -3.000000 0.000000
v 1.000000 -1.000000 0.000000
v 1.000000 1.000000 0.000000
v 3.000000 5.000000 0.000000
v 3.000000 3.000000 0.000000
v -1.000000 3.000000 0.000000
v -3.000000 5.000000 0.000000
v -3.000000 3.000000 0.000000
v -1.000000 5.000000 0.000000
v -5.000000 3.000000 0.000000
v -5.000000 1.000000 0.000000
v -3.000000 1.000000 0.000000
v -5.000000 -1.000000 0.000000
v -5.000000 -3.000000 0.000000
v -3.000000 -5.000000 0.000000
v -1.000000 -5.000000 0.000000
v 3.000000 -3.000000 2.000000
v -3.000000 -3.000000 2.000000
v 1.000000 -5.000000 2.000000
v 3.000000 -5.000000 2.000000
v 5.000000 -3.000000 2.000000
v 5.000000 -1.000000 2.000000
v 5.000000 3.000000 2.000000
v 5.000000 1.000000 2.000000
v 1.000000 5.000000 2.000000
v 3.000000 5.000000 2.000000
v 3.000000 3.000000 2.000000
v -3.000000 5.000000 2.000000
v -3.000000 3.000000 2.000000
v -1.000000 5.000000 2.000000
v -5.000000 3.000000 2.000000
v -5.000000 1.000000 2.000000
v -5.000000 -1.000000 2.000000
v -5.000000 -3.000000 2.000000
v -3.000000 -5.000000 2.000000
v -1.000000 -5.000000 2.000000
v -2.461586 -2.461586 3.000000
v 2.461586 -4.102643 3.000000
v 4.102643 -2.461586 3.000000
v 4.102643 -0.820529 3.000000
v 4.102643 0.820529 3.000000
v 0.820529 4.102643 3.000000
v 2.461586 4.102643 3.000000
v -2.461586 4.102643 3.000000
v -0.820529 4.102643 3.000000
v -4.102643 0.820529 3.000000
v -4.102643 -2.461586 3.000000
v 0.821511 -0.821511 3.000000
v 0.821511 0.821511 3.000000
v 0.821511 2.464534 3.000000
v 2.464534 2.464534 3.000000
v 0.821511 -2.464534 3.000000
v 2.464534 -0.821511 3.000000
v -0.821511 -0.821511 3.000000
v -2.464534 0.821511 3.000000
v -2.464534 2.464534 3.000000
v -0.821511 0.821511 3.000000
v -0.821511 2.464534 3.000000
v 4.107556 2.464534 3.000000
v 2.464534 0.821511 3.000000
v 0.821511 -4.107556 3.000000
v 2.464534 -2.464534 3.000000
v -0.821511 -2.464534 3.000000
v -2.464534 -4.107556 3.000000
v -0.821511 -4.107556 3.000000
v -4.107556 -0.821511 3.000000
v -2.464534 -0.821511 3.000000
v -4.107556 2.464534 3.000000
v -5.000000 3.000000 0.000000
v -1.000000 3.000000 0.000000
v -1.000000 3.000000 0.000000
v -1.000000 3.000000 0.000000
v -1.000000 5.000000 0.000000
v -1.000000 5.000000 0.000000
v -1.000000 5.000000 0.000000
v 1.000000 5.000000 0.000000
v 1.000000 5.000000 0.000000
v 1.000000 5.000000 0.000000
v 1.000000 3.000000 0.000000
v 1.000000 3.000000 0.000000
v 1.000000 3.000000 0.000000
v 3.000000 3.000000 0.000000
v 3.000000 3.000000 0.000000
v 3.000000 3.000000 0.000000
v 3.000000 3.000000 0.000000
v 5.000000 3.000000 0.000000
v 5.000000 3.000000 0.000000
v 5.000000 1.000000 0.000000
v 5.000000 1.000000 0.000000
v 5.000000 1.000000 0.000000
v 5.000000 -1.000000 0.000000
v 5.000000 -1.000000 0.000000
v 5.000000 -1.000000 0.000000
v 3.000000 1.000000 0.000000
v 3.000000 1.000000 0.000000
v 3.000000 1.000000 0.000000
v 5.000000 -3.000000 0.000000
v 5.000000 -3.000000 0.000000
v 3.000000 -3.000000 0.000000
v 3.000000 -3.000000 0.000000
v 3.000000 -3.000000 0.000000
v 3.000000 -3.000000 0.000000
v 3.000000 -5.000000 0.000000
v 3.000000 -5.000000 0.000000
v 1.000000 -5.000000 0.000000
v 1.000000 -5.000000 0.000000
v 1.000000 -5.000000 0.000000
v 1.000000 -3.000000 0.000000
v 1.000000 -3.000000 0.000000
v 1.000000 -3.000000 0.000000
v -1.000000 -5.000000 0.000000
v -1.000000 -5.000000 0.000000
v -1.000000 -5.000000 0.000000
v -1.000000 -3.000000 0.000000
v -1.000000 -3.000000 0.000000
v -1.000000 -3.000000 0.000000
v -3.000000 -3.000000 0.000000
v -3.000000 -3.000000 0.000000
v -3.000000 -3.000000 0.000000
v -3.000000 -3.000000 0.000000
v -3.000000 -1.000000 0.000000
v -3.000000 -1.000000 0.000000
v -3.000000 -1.000000 0.000000
v -3.000000 1.000000 0.000000
v -3.000000 1.000000 0.000000
v -3.000000 1.000000 0.000000
v -1.000000 1.000000 0.000000
v -1.000000 1.000000 0.000000
v -1.000000 1.000000 0.000000
v -3.000000 3.000000 0.000000
v -3.000000 3.000000 0.000000
v -3.000000 3.000000 0.000000
v -3.000000 3.000000 0.000000
v 1.000000 1.000000 0.000000
v 1.000000 1.000000 0.000000
v 1.000000 1.000000 0.000000
v 3.000000 -1.000000 0.000000
v 3.000000 -1.000000 0.000000
v 3.000000 -1.000000 0.000000
v 1.000000 -1.000000 0.000000
v 1.000000 -1.000000 0.000000
v 1.000000 -1.000000 0.000000
v -1.000000 -1.000000 0.000000
v -1.000000 -1.000000 0.000000
v -1.000000 -1.000000 0.000000
v -3.000000 -5.000000 0.000000
v -3.000000 -5.000000 0.000000
v -5.000000 1.000000 0.000000
v -5.000000 1.000000 0.000000
v -5.000000 1.000000 0.000000
v -5.000000 3.000000 0.000000
v -5.000000 3.000000 0.000000
v -3.000000 5.000000 0.000000
v -3.000000 5.000000 0.000000
v 3.000000 5.000000 0.000000
v 3.000000 5.000000 0.000000
v -5.000000 -1.000000 0.000000
v -5.000000 -1.000000 0.000000
v -5.000000 -1.000000 0.000000
v -5.000000 -3.000000 0.000000
v -5.000000 -3.000000 0.000000
v 5.000000 3.000000 2.000000
v 5.000000 3.000000 2.000000
v 5.000000 3.000000 2.000000
v 5.000000 1.000000 2.000000
v 5.000000 1.000000 2.000000
v 5.000000 1.000000 2.000000
v 1.000000 5.000000 2.000000
v 1.000000 5.000000 2.000000
v 1.000000 5.000000 2.000000
v 3.000000 5.000000 2.000000
v 3.000000 5.000000 2.000000
v 3.000000 5.000000 2.000000
v 3.000000 3.000000 2.000000
v 3.000000 3.000000 2.000000
v 3.000000 3.000000 2.000000
v -3.000000 5.000000 2.000000
v -3.000000 5.000000 2.000000
v -3.000000 5.000000 2.000000
v -1.000000 5.000000 2.000000
v -1.000000 5.000000 2.000000
v -1.000000 5.000000 2.000000
v -3.000000 3.000000 2.000000
v -3.000000 3.000000 2.000000
v -3.000000 3.000000 2.000000
v -5.000000 1.000000 2.000000
v -5.000000 1.000000 2.000000
v -5.000000 1.000000 2.000000
v -5.000000 3.000000 2.000000
v -5.000000 3.000000 2.000000
v -5.000000 3.000000 2.000000
v -1.000000 -5.000000 2.000000
v -1.000000 -5.000000 2.000000
v -1.000000 -5.000000 2.000000
v -3.000000 -5.000000 2.000000
v -3.000000 -5.000000 2.000000
v -3.000000 -5.000000 2.000000
v 1.000000 -5.000000 2.000000
v 1.000000 -5.000000 2.000000
v 1.000000 -5.000000 2.000000
v 3.000000 -5.000000 2.000000
v 3.000000 -5.000000 2.000000
v 3.000000 -5.000000 2.000000
v 3.000000 -3.000000 2.000000
v 3.000000 -3.000000 2.000000
v 3.000000 -3.000000 2.000000
v 5.000000 -3.000000 2.000000
v 5.000000 -3.000000 2.000000
v 5.000000 -3.000000 2.000000
v 5.000000 -1.000000 2.000000
v 5.000000 -1.000000 2.000000
v 5.000000 -1.000000 2.000000
v -5.000000 -1.000000 2.000000
v -5.000000 -1.000000 2.000000
v -5.000000 -1.000000 2.000000
v -5.000000 -3.000000 2.000000
v -5.000000 -3.000000 2.000000
v -5.000000 -3.000000 2.000000
v -3.000000 -3.000000 2.000000
v -3.000000 -3.000000 2.000000
v -3.000000 -3.000000 2.000000
v 0.820529 4.102643 3.000000
v 0.820529 4.102643 3.000000
v 0.820529 4.102643 3.000000
v 2.461586 4.102643 3.000000
v 2.461586 4.102643 3.000000
v -2.461586 4.102643 3.000000
v -2.461586 4.102643 3.000000
v -0.820529 4.102643 3.000000
v -0.820529 4.102643 3.000000
v -0.820529 4.102643 3.000000
v 4.102643 -0.820529 3.000000
v 4.102643 -0.820529 3.000000
v 4.102643 -0.820529 3.000000
v 4.102643 -2.461586 3.000000
v 4.102643 -2.461586 3.000000
v 4.102643 0.820529 3.000000
v 4.102643 0.820529 3.000000
v 4.102643 0.820529 3.000000
v -2.461586 -2.461586 3.000000
v -2.461586 -2.461586 3.000000
v -2.461586 -2.461586 3.000000
v -2.461586 -2.461586 3.000000
v -4.102643 -2.461586 3.000000
v -4.102643 -2.461586 3.000000
v 2.461586 -4.102643 3.000000
v 2.461586 -4.102643 3.000000
v -4.102643 0.820529 3.000000
v -4.102643 0.820529 3.000000
v -4.102643 0.820529 3.000000
v 2.464534 2.464534 3.000000
v 2.464534 2.464534 3.000000
v 2.464534 2.464534 3.000000
v 2.464534 2.464534 3.000000
v 0.821511 2.464534 3.000000
v 0.821511 2.464534 3.000000
v 0.821511 2.464534 3.000000
v -2.464534 0.821511 3.000000
v -2.464534 0.821511 3.000000
v -2.464534 0.821511 3.000000
v -0.821511 0.821511 3.000000
v -0.821511 0.821511 3.000000
v -0.821511 0.821511 3.000000
v -2.464534 2.464534 3.000000
v -2.464534 2.464534 3.000000
v -2.464534 2.464534 3.000000
v -2.464534 2.464534 3.000000
v -2.464534 -4.107556 3.000000
v -2.464534 -4.107556 3.000000
v -0.821511 -4.107556 3.000000
v -0.821511 -4.107556 3.000000
v -0.821511 -4.107556 3.000000
v -2.464534 -0.821511 3.000000
v -2.464534 -0.821511 3.000000
v -2.464534 -0.821511 3.000000
v -4.107556 -0.821511 3.000000
v -4.107556 -0.821511 3.000000
v -4.107556 -0.821511 3.000000
v 0.821511 -0.821511 3.000000
v 0.821511 -0.821511 3.000000
v 0.821511 -0.821511 3.000000
v -0.821511 -0.821511 3.000000
v -0.821511 -0.821511 3.000000
v -0.821511 -0.821511 3.000000
v 0.821511 0.821511 3.000000
v 0.821511 0.821511 3.000000
v 0.821511 0.821511 3.000000
v -0.821511 2.464534 3.000000
v -0.821511 2.464534 3.000000
v -0.821511 2.464534 3.000000
v 2.464534 0.821511 3.000000
v 2.464534 0.821511 3.000000
v 2.464534 0.821511 3.000000
v 2.464534 -0.821511 3.000000
v 2.464534 -0.821511 3.000000
v 2.464534 -0.821511 3.000000
v 0.821511 -2.464534 3.000000
v 0.821511 -2.464534 3.000000
v 0.821511 -2.464534 3.000000
v 2.464534 -2.464534 3.000000
v 2.464534 -2.464534 3.000000
v 2.464534 -2.464534 3.000000
v 2.464534 -2.464534 3.000000
v -0.821511 -2.464534 3.000000
v -0.821511 -2.464534 3.000000
v -0.821511 -2.464534 3.000000
v 4.107556 2.464534 3.000000
v 4.107556 2.464534 3.000000
v 0.821511 -4.107556 3.000000
v 0.821511 -4.107556 3.000000
v 0.821511 -4.107556 3.000000
v -4.107556 2.464534 3.000000
v -4.107556 2.464534 3.000000
vn -0.0000 -0.0000 1.0000
vn -0.0000 1.0000 -0.0000
vn 1.0000 -0.0000 -0.0000
vn -0.0000 -1.0000 -0.0000
vn -1.0000 -0.0000 -0.0000
vn -0.0000 -0.7443 -0.6679
vn -0.0000 0.7461 -0.6658
vn -0.7461 -0.0000 -0.6658
vn -0.0000 -0.8816 -0.4721
vn -0.0000 0.7443 -0.6679
vn 0.7461 -0.0000 -0.6658
vn -0.8812 0.0016 -0.4727
vn -0.8805 -0.0000 -0.4741
vn 0.7443 -0.0000 -0.6679
vn -0.0000 0.8805 -0.4741
vn -0.7443 -0.0000 -0.6679
vn 0.8812 -0.0016 -0.4727
vn 0.8816 -0.0000 -0.4721
vn 0.7445 0.0022 -0.6677
vn -0.0000 -0.0000 -1.0000
vn -0.7445 0.0022 -0.6677
vn -0.0022 0.7459 -0.6661
vn 0.7441 -0.0022 -0.6681
vn -0.8812 -0.0016 -0.4727
vn 0.7459 0.0022 -0.6661
vn -0.0016 0.8812 -0.4727
vn 0.8805 -0.0000 -0.4741
vn 0.8808 -0.0016 -0.4734
vt 0.250000 0.250000
vt 0.000000 0.250000
vt 0.500000 0.250000
vt 0.250000 0.250000
vt 0.500000 0.750000
vt 0.500000 0.250000
vt 0.500000 0.250000
vt 0.000000 0.250000
vt 0.250000 1.000000
vt 0.250000 1.000000
vt 0.250000 0.250000
vt 0.250000 1.000000
vt 0.250000 1.000000
vt 0.500000 0.750000
vt 0.500000 1.000000
vt 0.500000 0.250000
vt 0.250000 0.750000
vt 0.500000 0.750000
vt 0.500000 1.000000
vt 0.250000 0.250000
vt 0.500000 0.250000
vt 0.500000 1.000000
vt 0.500000 0.250000
vt 0.500000 0.250000
vt 0.500000 0.250000
vt 0.500000 0.250000
vt 0.250000 0.250000
vt 0.250000 1.000000
vt 0.500000 0.250000
vt 0.500000 0.250000
vt 0.500000 0.250000
vt 0.250000 0.250000
vt 0.500000 0.250000
vt 0.500000 0.250000
vt 0.500000 0.250000
vt 0.500000 0.250000
vt 0.500000 0.250000
vt 0.500000 0.250000
vt 0.500000 0.250000
vt 0.250000 0.250000
vt 0.250000 0.250000
vt 0.250000 0.250000
vt 0.250000 0.250000
vt 0.500000 0.250000
vt 0.250000 0.250000
vt 0.500000 0.250000
vt 0.500000 0.250000
vt 0.250000 0.250000
vt 0.500000 0.250000
vt 0.500000 0.250000
vt 0.500000 0.250000
vt 0.250000 0.250000
vt 0.250000 0.750000
vt 0.000000 1.000000
vt 0.000000 1.000000
vt 0.250000 1.000000
vt 0.250000 1.000000
vt 0.250000 0.750000
vt 0.250000 1.000000
vt 0.250000 0.750000
vt 0.250000 1.000000
vt 0.000000 0.750000
vt 0.000000 0.750000
vt 0.250000 1.000000
vt 0.250000 0.750000
vt 0.000000 0.750000
vt 0.250000 0.750000
vt 0.250000 1.000000
vt 0.250000 0.750000
vt 0.000000 1.000000
vt 0.000000 1.000000
vt 0.250000 1.000000
vt 0.000000 1.000000
vt 0.000000 1.000000
vt 0.250000 1.000000
vt 0.250000 0.750000
vt 0.000000 1.000000
vt 0.250000 1.000000
vt 0.250000 1.000000
vt 0.000000 0.750000
vt 0.000000 1.000000
vt 0.000000 0.750000
vt 0.000000 1.000000
vt 0.250000 0.750000
vt 0.500000 0.750000
vt 0.250000 1.000000
vt 0.250000 0.750000
vt 0.250000 0.750000
vt 0.250000 1.000000
vt 0.000000 0.250000
vt 0.250000 1.000000
vt 0.250000 0.750000
vt 0.250000 0.250000
vt 0.500000 0.750000
vt 0.250000 1.000000
vt 0.250000 0.750000
vt 0.250000 0.750000
vt 0.250000 1.000000
vt 0.500000 1.000000
vt 0.250000 0.250000
vt 0.250000 1.000000
vt 0.250000 0.250000
vt 0.250000 1.000000
vt 0.500000 1.000000
vt 0.500000 0.250000
vt 0.500000 1.000000
vt 0.250000 1.000000
vt 0.250000 0.250000
vt 0.250000 0.750000
vt 0.500000 1.000000
vt 0.250000 1.000000
vt 0.500000 1.000000
vt 0.250000 0.250000
vt 0.500000 0.750000
vt 0.250000 1.000000
vt 0.500000 1.000000
vt 0.250000 0.250000
vt 0.500000 1.000000
vt 0.250000 0.250000
vt 0.500000 0.750000
vt 0.500000 1.000000
vt 0.500000 0.250000
vt 0.250000 1.000000
vt 0.500000 1.000000
vt 0.500000 0.750000
vt 0.500000 0.750000
vt 0.500000 1.000000
vt 0.250000 0.250000
vt 0.250000 0.750000
vt 0.500000 1.000000
vt 0.500000 0.750000
vt 0.500000 0.750000
vt 0.500000 1.000000
vt 0.250000 0.750000
vt 0.500000 0.250000
vt 0.500000 0.750000
vt 0.250000 0.750000
vt 0.500000 1.000000
vt 0.250000 0.750000
vt 0.500000 0.750000
vt 0.500000 1.000000
vt 0.500000 1.000000
vt 0.500000 0.750000
vt 0.250000 0.750000
vt 0.250000 0.750000
vt 0.500000 0.750000
vt 0.250000 1.000000
vt 0.250000 0.250000
vt 0.500000 0.750000
vt 0.250000 0.750000
vt 0.250000 1.000000
vt 0.500000 1.000000
vt 0.250000 1.000000
vt 0.250000 0.750000
vt 0.250000 0.750000
vt 0.250000 1.000000
vt 0.500000 1.000000
vt 0.250000 0.750000
vt 0.500000 0.750000
vt 0.500000 1.000000
vt 0.500000 0.750000
vt 0.250000 0.250000
vt 0.500000 0.750000
vt 0.250000 0.750000
vt 0.250000 0.250000
vt 0.250000 0.750000
vt 0.250000 0.250000
vt 0.250000 0.750000
vt 0.250000 0.250000
vt 0.250000 1.000000
vt 0.500000 0.250000
vt 0.500000 0.750000
vt 0.250000 0.750000
vt 0.000000 0.250000
vt 0.500000 0.750000
vt 0.250000 0.250000
vt 0.250000 0.500000
vt 0.500000 0.500000
vt 0.250000 0.250000
vt 0.500000 0.500000
vt 0.000000 0.500000
vt 0.500000 0.250000
vt 0.250000 0.500000
vt 0.250000 0.500000
vt 0.500000 0.250000
vt 0.500000 0.500000
vt 0.250000 0.500000
vt 0.500000 0.250000
vt 0.500000 0.500000
vt 0.250000 0.500000
vt 0.500000 0.250000
vt 0.250000 0.500000
vt 0.500000 0.500000
vt 0.250000 0.250000
vt 0.500000 0.500000
vt 0.000000 0.500000
vt 0.250000 0.250000
vt 0.250000 0.500000
vt 0.500000 0.500000
vt 0.500000 0.250000
vt 0.250000 0.500000
vt 0.250000 0.500000
vt 0.500000 0.250000
vt 0.500000 0.500000
vt 0.250000 0.500000
vt 0.250000 0.250000
vt 0.250000 0.500000
vt 0.250000 0.500000
vt 0.500000 0.250000
vt 0.500000 0.500000
vt 0.250000 0.500000
vt 0.250000 0.250000
vt 0.000000 0.500000
vt 0.500000 0.500000
vt 0.250000 0.250000
vt 0.250000 0.500000
vt 0.500000 0.500000
vt 0.250000 0.250000
vt 0.250000 0.500000
vt 0.500000 0.500000
vt 0.250000 0.250000
vt 0.250000 0.500000
vt 0.500000 0.500000
vt 0.250000 0.250000
vt 0.250000 0.500000
vt 0.250000 0.500000
vt 0.250000 0.250000
vt 0.000000 0.500000
vt 0.500000 0.500000
vt 0.250000 0.250000
vt 0.250000 0.500000
vt 0.500000 0.500000
vt 0.250000 0.250000
vt 0.250000 0.500000
vt 0.500000 0.500000
vt 0.250000 0.250000
vt 0.250000 0.375000
vt 0.500000 0.375000
vt 0.250000 1.000000
vt 0.500000 0.375000
vt 0.250000 0.375000
vt 0.250000 0.375000
vt 0.500000 0.375000
vt 0.500000 0.375000
vt 0.250000 0.375000
vt 0.250000 0.750000
vt 0.250000 0.375000
vt 0.500000 0.375000
vt 0.000000 1.000000
vt 0.500000 0.375000
vt 0.250000 0.375000
vt 0.250000 0.375000
vt 0.500000 0.375000
vt 0.000000 1.000000
vt 0.250000 0.375000
vt 0.500000 0.375000
vt 0.000000 0.750000
vt 0.000000 1.000000
vt 0.500000 0.375000
vt 0.250000 0.375000
vt 0.250000 0.375000
vt 0.500000 0.375000
vt 0.500000 0.375000
vt 0.250000 0.375000
vt 0.250000 0.750000
vt 0.250000 1.000000
vt 0.250000 0.375000
vt 0.500000 0.375000
vt 0.000000 1.000000
vt 0.250000 0.750000
vt 0.250000 1.000000
vt 0.000000 1.000000
vt 0.250000 0.750000
vt 0.000000 0.750000
vt 0.250000 1.000000
vt 0.250000 1.000000
vt 0.250000 0.750000
vt 0.000000 0.750000
vt 0.250000 0.750000
vt 0.500000 0.375000
vt 0.250000 0.375000
vt 0.000000 0.750000
vt 0.500000 0.375000
vt 0.250000 0.375000
vt 0.250000 0.375000
vt 0.500000 0.375000
vt 0.000000 0.750000
vt 0.250000 1.000000
vt 0.250000 0.750000
vt 0.000000 0.750000
vt 0.250000 0.750000
vt 0.250000 0.375000
vt 0.500000 0.375000
vt 0.000000 1.000000
vt 0.000000 0.750000
vt 0.250000 0.750000
vt 0.000000 0.750000
vt 0.250000 0.750000
vt 0.250000 1.000000
vt 0.250000 1.000000
vt 0.000000 1.000000
vt 0.000000 0.750000
vt 0.250000 0.750000
vt 0.250000 1.000000
vt 0.000000 0.750000
vt 0.000000 1.000000
vt 0.250000 1.000000
vt 0.000000 0.750000
vt 0.000000 1.000000
vt 0.250000 1.000000
vt 0.000000 0.750000
vt 0.000000 0.750000
vt 0.000000 1.000000
vt 0.250000 0.750000
vt 0.000000 1.000000
vt 0.250000 0.375000
vt 0.500000 0.375000
vt 0.000000 0.750000
vt 0.000000 0.750000
vt 0.250000 0.750000
vt 0.000000 1.000000
vt 0.500000 0.375000
vt 0.250000 0.375000
vt 0.000000 0.750000
vt 0.250000 0.375000
vt 0.500000 0.375000
vt 0.250000 0.375000
vt 0.500000 0.375000
s 0
f 160/159/1 152/151/1 145/144/1
f 132/131/1 157/156/1 159/158/1
f 126/125/1 154/153/1 156/155/1
f 18/18/1 112/111/1 151/150/1
f 150/149/1 99/98/1 97/96/1
f 144/143/1 96/95/1 88/87/1
f 141/140/1 87/86/1 146/145/1
f 137/136/1 13/13/1 140/139/1
f 133/132/1 10/10/1 138/137/1
f 127/126/1 124/123/1 130/129/1
f 121/120/1 116/115/1 17/17/1
f 115/114/1 108/107/1 155/154/1
f 5/5/1 104/103/1 110/109/1
f 14/14/1 102/101/1 98/97/1
f 95/94/1 171/170/1 93/92/1
f 86/85/1 92/91/1 89/88/1
f 147/146/1 90/89/1 169/168/1
f 164/163/1 148/147/1 167/166/1
f 173/172/1 28/28/1 165/164/1
f 176/175/1 12/12/1 174/173/1
f 162/161/1 9/9/1 135/134/1
f 123/122/2 217/216/2 120/119/2
f 136/135/3 212/211/3 163/162/3
f 94/93/4 197/196/4 91/90/4
f 25/25/4 193/192/4 170/169/4
f 7/7/5 220/219/5 118/117/5
f 23/23/3 199/198/3 149/148/3
f 16/16/2 223/222/2 114/113/2
f 24/24/4 206/205/4 168/167/4
f 26/26/3 202/201/3 166/165/3
f 6/6/5 226/225/5 109/108/5
f 27/27/3 229/228/3 175/174/3
f 31/31/2 208/207/2 129/128/2
f 106/105/5 178/177/5 103/102/5
f 4/4/5 182/181/5 2/2/5
f 32/32/2 214/213/2 8/8/2
f 29/29/3 232/231/3 177/176/3
f 3/3/4 191/190/4 101/100/4
f 172/171/4 184/183/4 1/1/4
f 30/30/2 235/234/2 11/11/2
f 21/21/5 188/187/5 20/20/5
f 186/185/6 246/245/6 198/197/6
f 210/209/7 326/325/7 216/215/7
f 183/182/8 324/323/8 180/179/8
f 201/200/9 328/327/9 207/206/9
f 35/35/10 262/261/10 219/218/10
f 41/41/6 241/240/6 238/237/6
f 204/203/11 293/292/11 231/230/11
f 222/221/12 263/262/12 317/316/12
f 192/191/13 242/241/13 42/42/13
f 49/49/14 261/260/14 234/233/14
f 33/33/15 252/251/15 225/224/15
f 46/46/6 243/242/6 195/194/6
f 237/236/15 260/259/15 256/255/15
f 228/227/16 251/250/16 248/247/16
f 45/45/17 244/243/17 282/281/17
f 34/34/18 285/284/18 213/212/18
f 38/38/16 253/252/16 40/40/16
f 48/48/19 329/328/19 265/264/19
f 43/43/9 323/322/9 268/267/9
f 52/52/7 284/283/7 286/285/7
f 278/277/20 295/294/20 298/297/20
f 304/303/20 302/301/20 279/278/20
f 271/270/20 307/306/20 303/302/20
f 65/65/20 310/309/20 296/295/20
f 297/296/20 316/315/20 313/312/20
f 299/298/20 314/313/20 320/319/20
f 258/257/20 300/299/20 322/321/20
f 274/273/20 70/70/20 291/290/20
f 280/279/20 73/73/20 275/274/20
f 306/305/20 240/239/20 273/272/20
f 66/66/20 59/59/20 270/269/20
f 67/67/20 255/254/20 309/308/20
f 76/76/20 250/249/20 312/311/20
f 69/69/20 55/55/20 319/318/20
f 315/314/20 54/54/20 325/324/20
f 321/320/20 77/77/20 288/287/20
f 80/80/20 79/79/20 81/81/20
f 63/63/20 289/288/20 259/258/20
f 266/265/20 83/83/20 82/82/20
f 62/62/20 72/72/20 71/71/20
f 60/60/20 74/74/20 283/282/20
f 160/159/1 158/157/1 152/151/1
f 132/131/1 125/124/1 157/156/1
f 126/125/1 117/116/1 154/153/1
f 18/18/1 153/152/1 112/111/1
f 150/149/1 111/110/1 99/98/1
f 144/143/1 19/19/1 96/95/1
f 141/140/1 143/142/1 87/86/1
f 137/136/1 161/160/1 13/13/1
f 133/132/1 131/130/1 10/10/1
f 127/126/1 122/121/1 124/123/1
f 121/120/1 119/118/1 116/115/1
f 115/114/1 113/112/1 108/107/1
f 5/5/1 107/106/1 104/103/1
f 14/14/1 105/104/1 102/101/1
f 95/94/1 100/99/1 171/170/1
f 86/85/1 15/15/1 92/91/1
f 147/146/1 22/22/1 90/89/1
f 164/163/1 142/141/1 148/147/1
f 173/172/1 139/138/1 28/28/1
f 176/175/1 134/133/1 12/12/1
f 162/161/1 128/127/1 9/9/1
f 123/122/2 215/214/2 217/216/2
f 136/135/3 236/235/3 212/211/3
f 94/93/4 185/184/4 197/196/4
f 25/25/4 196/195/4 193/192/4
f 7/7/5 218/217/5 220/219/5
f 23/23/3 194/193/3 199/198/3
f 16/16/2 221/220/2 223/222/2
f 24/24/4 200/199/4 206/205/4
f 26/26/3 205/204/3 202/201/3
f 6/6/5 224/223/5 226/225/5
f 27/27/3 203/202/3 229/228/3
f 31/31/2 211/210/2 208/207/2
f 106/105/5 181/180/5 178/177/5
f 4/4/5 227/226/5 182/181/5
f 32/32/2 209/208/2 214/213/2
f 29/29/3 230/229/3 232/231/3
f 3/3/4 179/178/4 191/190/4
f 172/171/4 187/186/4 184/183/4
f 30/30/2 233/232/2 235/234/2
f 21/21/5 190/189/5 188/187/5
f 186/185/6 239/238/6 246/245/6
f 210/209/7 287/286/7 326/325/7
f 183/182/21 254/253/21 324/323/21
f 201/200/9 281/280/9 328/327/9
f 35/35/22 327/326/22 262/261/22
f 41/41/6 189/188/6 241/240/6
f 204/203/23 264/263/23 293/292/23
f 222/221/13 36/36/13 263/262/13
f 192/191/24 269/268/24 242/241/24
f 49/49/25 294/293/25 261/260/25
f 33/33/26 318/317/26 252/251/26
f 46/46/6 245/244/6 243/242/6
f 237/236/15 50/50/15 260/259/15
f 228/227/16 37/37/16 251/250/16
f 45/45/27 44/44/27 244/243/27
f 34/34/28 257/256/28 285/284/28
f 38/38/16 249/248/16 253/252/16
f 48/48/11 47/47/11 329/328/11
f 43/43/9 39/39/9 323/322/9
f 52/52/7 51/51/7 284/283/7
f 278/277/20 301/300/20 295/294/20
f 304/303/20 272/271/20 302/301/20
f 271/270/20 267/266/20 307/306/20
f 65/65/20 308/307/20 310/309/20
f 297/296/20 311/310/20 316/315/20
f 299/298/20 64/64/20 314/313/20
f 258/257/20 290/289/20 300/299/20
f 274/273/20 277/276/20 70/70/20
f 280/279/20 305/304/20 73/73/20
f 306/305/20 247/246/20 240/239/20
f 66/66/20 58/58/20 59/59/20
f 67/67/20 75/75/20 255/254/20
f 76/76/20 57/57/20 250/249/20
f 69/69/20 56/56/20 55/55/20
f 315/314/20 78/78/20 54/54/20
f 321/320/20 68/68/20 77/77/20
f 80/80/20 53/53/20 79/79/20
f 63/63/20 292/291/20 289/288/20
f 266/265/20 276/275/20 83/83/20
f 62/62/20 84/84/20 72/72/20
f 60/60/20 61/61/20 74/74/20
